ffmpeg started on 2026-03-22 at 17:11:18
Report written to "D:\Convert\FFMetrics\reports\psnr_report-6.txt"
Log level: 32
Command line:
ffmpeg -hide_banner -nostdin -r 24000/1001 -i "F:\\Convert\\files\\[DC] Make Heroine ga Oosugiru - 07_Telegram_HEVC(232).mkv" -r 24000/1001 -i "F:\\Convert\\files\\[DC] Make Heroine ga Oosugiru - 07_Telegram.mp4" -lavfi "[0:v]settb=AVTB,setpts=PTS-STARTPTS,format=pix_fmts=yuv420p10le,fps=24000/1001,scale=1920:1080:flags=lanczos:param0=3:out_range=limited:out_color_matrix=bt709:out_chroma_loc=left,setsar=1/1,setdar=(1920/1080)*(1/1),colorspace=format=yuv420p10:range=tv:primaries=bt709:trc=bt709:space=bt709:fast=0[main];[1:v]settb=AVTB,setpts=PTS-STARTPTS,format=pix_fmts=yuv420p,fps=24000/1001,scale=1920:1080:flags=lanczos:param0=3:out_range=limited:out_color_matrix=bt709:out_chroma_loc=left,setsar=1.000,setdar=1.778,colorspace=format=yuv420p:range=tv:primaries=bt709:trc=bt709:space=bt709:fast=0[ref];[main][ref]psnr=eof_action=endall:stats_file='D\\:/Convert/FFMetrics/logs/psnr_logfile-6.txt'" -f null -
Input #0, matroska,webm, from 'F:\Convert\files\[DC] Make Heroine ga Oosugiru - 07_Telegram_HEVC(232).mkv':
  Metadata:
    COMPATIBLE_BRANDS: isomiso2avc1mp41
    MAJOR_BRAND     : isom
    MINOR_VERSION   : 512
    ENCODER         : Lavf61.7.100
  Duration: 00:24:06.79, start: -0.021000, bitrate: 983 kb/s
  Stream #0:0: Video: hevc (Main 10), yuv420p10le(tv, bt709, progressive), 1920x1080 [SAR 1:1 DAR 16:9], 23.98 fps, 23.98 tbr, 1k tbn (default)
      Metadata:
        HANDLER_NAME    : VideoHandler
        VENDOR_ID       : [0][0][0][0]
        ENCODER         : Lavc61.19.100 libx265
        BPS             : 786664
        DURATION        : 00:24:06.569708333
        NUMBER_OF_FRAMES: 34683
        NUMBER_OF_BYTES : 142245581
        _STATISTICS_WRITING_APP: mkvpropedit v94.0 ('Initiate') 64-bit
        _STATISTICS_WRITING_DATE_UTC: 2026-03-21 13:32:12
        _STATISTICS_TAGS: BPS DURATION NUMBER_OF_FRAMES NUMBER_OF_BYTES
  Stream #0:1: Audio: aac (LC), 48000 Hz, stereo, fltp (default)
      Metadata:
        HANDLER_NAME    : SoundHandler
        VENDOR_ID       : [0][0][0][0]
        ENCODER         : Lavc61.19.100 aac
        BPS             : 193194
        DURATION        : 00:24:06.784000000
        NUMBER_OF_FRAMES: 67819
        NUMBER_OF_BYTES : 34938755
        _STATISTICS_WRITING_APP: mkvpropedit v94.0 ('Initiate') 64-bit
        _STATISTICS_WRITING_DATE_UTC: 2026-03-21 13:32:12
        _STATISTICS_TAGS: BPS DURATION NUMBER_OF_FRAMES NUMBER_OF_BYTES
Input #1, mov,mp4,m4a,3gp,3g2,mj2, from 'F:\Convert\files\[DC] Make Heroine ga Oosugiru - 07_Telegram.mp4':
  Metadata:
    major_brand     : isom
    minor_version   : 512
    compatible_brands: isomiso2avc1mp41
    encoder         : Lavf60.16.100
  Duration: 00:24:06.74, start: 0.000000, bitrate: 3764 kb/s
  Stream #1:0[0x1](und): Video: h264 (High) (avc1 / 0x31637661), yuv420p(tv, bt709, progressive), 1920x1080 [SAR 1:1 DAR 16:9], 3616 kb/s, 23.98 fps, 23.98 tbr, 24k tbn (default)
      Metadata:
        handler_name    : VideoHandler
        vendor_id       : [0][0][0][0]
        encoder         : Lavc60.31.102 h264_qsv
  Stream #1:1[0x2](und): Audio: aac (HE-AACv2) (mp4a / 0x6134706D), 48000 Hz, stereo, fltp, 144 kb/s (default)
      Metadata:
        handler_name    : SoundHandler
        vendor_id       : [0][0][0][0]
Stream mapping:
  Stream #0:0 (hevc) -> settb:default
  Stream #1:0 (h264) -> settb:default
  psnr:default -> Stream #0:0 (wrapped_avframe)
  Stream #0:1 -> #0:1 (aac (native) -> pcm_s16le (native))
Output #0, null, to 'pipe:':
  Metadata:
    COMPATIBLE_BRANDS: isomiso2avc1mp41
    MAJOR_BRAND     : isom
    MINOR_VERSION   : 512
    encoder         : Lavf61.7.100
  Stream #0:0: Video: wrapped_avframe, yuv420p10le(tv, bt709, progressive), 1920x1080 [SAR 1:1 DAR 16:9], q=2-31, 200 kb/s, 23.98 fps, 23.98 tbn
      Metadata:
        encoder         : Lavc61.19.100 wrapped_avframe
  Stream #0:1: Audio: pcm_s16le, 48000 Hz, stereo, s16, 1536 kb/s (default)
      Metadata:
        HANDLER_NAME    : SoundHandler
        VENDOR_ID       : [0][0][0][0]
        _STATISTICS_TAGS: BPS DURATION NUMBER_OF_FRAMES NUMBER_OF_BYTES
        BPS             : 193194
        DURATION        : 00:24:06.784000000
        NUMBER_OF_FRAMES: 67819
        NUMBER_OF_BYTES : 34938755
        _STATISTICS_WRITING_APP: mkvpropedit v94.0 ('Initiate') 64-bit
        _STATISTICS_WRITING_DATE_UTC: 2026-03-21 13:32:12
        encoder         : Lavc61.19.100 pcm_s16le
frame=  141 fps=0.0 q=-0.0 size=N/A time=00:00:05.88 bitrate=N/A speed=11.5x    frame=  345 fps=337 q=-0.0 size=N/A time=00:00:14.38 bitrate=N/A speed=  14x    frame=  551 fps=358 q=-0.0 size=N/A time=00:00:22.98 bitrate=N/A speed=  15x    frame=  770 fps=373 q=-0.0 size=N/A time=00:00:32.11 bitrate=N/A speed=15.6x    frame=  937 fps=364 q=-0.0 size=N/A time=00:00:39.08 bitrate=N/A speed=15.2x    frame= 1092 fps=354 q=-0.0 size=N/A time=00:00:45.54 bitrate=N/A speed=14.8x    frame= 1257 fps=349 q=-0.0 size=N/A time=00:00:52.42 bitrate=N/A speed=14.6x    frame= 1430 fps=346 q=-0.0 size=N/A time=00:00:59.64 bitrate=N/A speed=14.5x    frame= 1574 fps=339 q=-0.0 size=N/A time=00:01:05.64 bitrate=N/A speed=14.1x    frame= 1727 fps=335 q=-0.0 size=N/A time=00:01:12.03 bitrate=N/A speed=  14x    frame= 1898 fps=335 q=-0.0 size=N/A time=00:01:19.16 bitrate=N/A speed=  14x    frame= 2059 fps=333 q=-0.0 size=N/A time=00:01:25.87 bitrate=N/A speed=13.9x    frame= 2191 fps=326 q=-0.0 size=N/A time=00:01:31.38 bitrate=N/A speed=13.6x    frame= 2345 fps=324 q=-0.0 size=N/A time=00:01:37.80 bitrate=N/A speed=13.5x    frame= 2477 fps=320 q=-0.0 size=N/A time=00:01:43.31 bitrate=N/A speed=13.3x    frame= 2619 fps=317 q=-0.0 size=N/A time=00:01:49.23 bitrate=N/A speed=13.2x    frame= 2800 fps=319 q=-0.0 size=N/A time=00:01:56.78 bitrate=N/A speed=13.3x    frame= 2977 fps=320 q=-0.0 size=N/A time=00:02:04.16 bitrate=N/A speed=13.4x    frame= 3170 fps=323 q=-0.0 size=N/A time=00:02:12.21 bitrate=N/A speed=13.5x    frame= 3385 fps=328 q=-0.0 size=N/A time=00:02:21.18 bitrate=N/A speed=13.7x    frame= 3589 fps=331 q=-0.0 size=N/A time=00:02:29.69 bitrate=N/A speed=13.8x    frame= 3788 fps=334 q=-0.0 size=N/A time=00:02:37.99 bitrate=N/A speed=13.9x    frame= 3989 fps=336 q=-0.0 size=N/A time=00:02:46.37 bitrate=N/A speed=  14x    frame= 4191 fps=338 q=-0.0 size=N/A time=00:02:54.79 bitrate=N/A speed=14.1x    frame= 4386 fps=340 q=-0.0 size=N/A time=00:03:02.93 bitrate=N/A speed=14.2x    frame= 4579 fps=341 q=-0.0 size=N/A time=00:03:10.98 bitrate=N/A speed=14.2x    frame= 4773 fps=343 q=-0.0 size=N/A time=00:03:19.07 bitrate=N/A speed=14.3x    frame= 4978 fps=344 q=-0.0 size=N/A time=00:03:27.62 bitrate=N/A speed=14.4x    frame= 5170 fps=345 q=-0.0 size=N/A time=00:03:35.63 bitrate=N/A speed=14.4x    frame= 5364 fps=346 q=-0.0 size=N/A time=00:03:43.72 bitrate=N/A speed=14.5x    frame= 5564 fps=348 q=-0.0 size=N/A time=00:03:52.06 bitrate=N/A speed=14.5x    frame= 5755 fps=348 q=-0.0 size=N/A time=00:04:00.03 bitrate=N/A speed=14.5x    frame= 5952 fps=349 q=-0.0 size=N/A time=00:04:08.24 bitrate=N/A speed=14.6x    frame= 6150 fps=351 q=-0.0 size=N/A time=00:04:16.50 bitrate=N/A speed=14.6x    frame= 6351 fps=352 q=-0.0 size=N/A time=00:04:24.88 bitrate=N/A speed=14.7x    frame= 6550 fps=352 q=-0.0 size=N/A time=00:04:33.18 bitrate=N/A speed=14.7x    frame= 6756 fps=353 q=-0.0 size=N/A time=00:04:41.78 bitrate=N/A speed=14.7x    frame= 6965 fps=355 q=-0.0 size=N/A time=00:04:50.49 bitrate=N/A speed=14.8x    frame= 7153 fps=355 q=-0.0 size=N/A time=00:04:58.33 bitrate=N/A speed=14.8x    frame= 7356 fps=356 q=-0.0 size=N/A time=00:05:06.80 bitrate=N/A speed=14.8x    frame= 7557 fps=357 q=-0.0 size=N/A time=00:05:15.18 bitrate=N/A speed=14.9x    frame= 7742 fps=357 q=-0.0 size=N/A time=00:05:22.90 bitrate=N/A speed=14.9x    frame= 7937 fps=357 q=-0.0 size=N/A time=00:05:31.03 bitrate=N/A speed=14.9x    frame= 8125 fps=357 q=-0.0 size=N/A time=00:05:38.88 bitrate=N/A speed=14.9x    frame= 8311 fps=358 q=-0.0 size=N/A time=00:05:46.63 bitrate=N/A speed=14.9x    frame= 8502 fps=358 q=-0.0 size=N/A time=00:05:54.60 bitrate=N/A speed=14.9x    frame= 8712 fps=359 q=-0.0 size=N/A time=00:06:03.36 bitrate=N/A speed=  15x    frame= 8912 fps=359 q=-0.0 size=N/A time=00:06:11.70 bitrate=N/A speed=  15x    frame= 9106 fps=360 q=-0.0 size=N/A time=00:06:19.79 bitrate=N/A speed=  15x    frame= 9311 fps=360 q=-0.0 size=N/A time=00:06:28.34 bitrate=N/A speed=  15x    frame= 9502 fps=361 q=-0.0 size=N/A time=00:06:36.31 bitrate=N/A speed=  15x    frame= 9694 fps=361 q=-0.0 size=N/A time=00:06:44.32 bitrate=N/A speed=15.1x    frame= 9900 fps=362 q=-0.0 size=N/A time=00:06:52.91 bitrate=N/A speed=15.1x    frame=10103 fps=362 q=-0.0 size=N/A time=00:07:01.37 bitrate=N/A speed=15.1x    frame=10302 fps=363 q=-0.0 size=N/A time=00:07:09.67 bitrate=N/A speed=15.1x    frame=10503 fps=363 q=-0.0 size=N/A time=00:07:18.06 bitrate=N/A speed=15.2x    frame=10709 fps=364 q=-0.0 size=N/A time=00:07:26.65 bitrate=N/A speed=15.2x    frame=10898 fps=364 q=-0.0 size=N/A time=00:07:34.53 bitrate=N/A speed=15.2x    frame=11102 fps=364 q=-0.0 size=N/A time=00:07:43.04 bitrate=N/A speed=15.2x    frame=11290 fps=364 q=-0.0 size=N/A time=00:07:50.88 bitrate=N/A speed=15.2x    frame=11502 fps=365 q=-0.0 size=N/A time=00:07:59.72 bitrate=N/A speed=15.2x    frame=11701 fps=366 q=-0.0 size=N/A time=00:08:08.02 bitrate=N/A speed=15.2x    frame=11908 fps=366 q=-0.0 size=N/A time=00:08:16.66 bitrate=N/A speed=15.3x    frame=12121 fps=367 q=-0.0 size=N/A time=00:08:25.54 bitrate=N/A speed=15.3x    frame=12327 fps=367 q=-0.0 size=N/A time=00:08:34.13 bitrate=N/A speed=15.3x    frame=12528 fps=368 q=-0.0 size=N/A time=00:08:42.52 bitrate=N/A speed=15.3x    frame=12732 fps=368 q=-0.0 size=N/A time=00:08:51.03 bitrate=N/A speed=15.3x    frame=12942 fps=369 q=-0.0 size=N/A time=00:08:59.78 bitrate=N/A speed=15.4x    frame=13150 fps=369 q=-0.0 size=N/A time=00:09:08.46 bitrate=N/A speed=15.4x    frame=13344 fps=369 q=-0.0 size=N/A time=00:09:16.55 bitrate=N/A speed=15.4x    frame=13548 fps=370 q=-0.0 size=N/A time=00:09:25.06 bitrate=N/A speed=15.4x    frame=13749 fps=370 q=-0.0 size=N/A time=00:09:33.44 bitrate=N/A speed=15.4x    frame=13946 fps=370 q=-0.0 size=N/A time=00:09:41.66 bitrate=N/A speed=15.4x    frame=14128 fps=370 q=-0.0 size=N/A time=00:09:49.25 bitrate=N/A speed=15.4x    frame=14333 fps=370 q=-0.0 size=N/A time=00:09:57.80 bitrate=N/A speed=15.4x    frame=14531 fps=370 q=-0.0 size=N/A time=00:10:06.06 bitrate=N/A speed=15.4x    frame=14736 fps=371 q=-0.0 size=N/A time=00:10:14.61 bitrate=N/A speed=15.5x    frame=14929 fps=371 q=-0.0 size=N/A time=00:10:22.66 bitrate=N/A speed=15.5x    frame=15117 fps=371 q=-0.0 size=N/A time=00:10:30.50 bitrate=N/A speed=15.5x    frame=15302 fps=370 q=-0.0 size=N/A time=00:10:38.22 bitrate=N/A speed=15.4x    frame=15507 fps=371 q=-0.0 size=N/A time=00:10:46.77 bitrate=N/A speed=15.5x    frame=15710 fps=371 q=-0.0 size=N/A time=00:10:55.23 bitrate=N/A speed=15.5x    frame=15922 fps=371 q=-0.0 size=N/A time=00:11:04.08 bitrate=N/A speed=15.5x    frame=16129 fps=372 q=-0.0 size=N/A time=00:11:12.71 bitrate=N/A speed=15.5x    frame=16329 fps=372 q=-0.0 size=N/A time=00:11:21.05 bitrate=N/A speed=15.5x    frame=16531 fps=372 q=-0.0 size=N/A time=00:11:29.48 bitrate=N/A speed=15.5x    frame=16748 fps=373 q=-0.0 size=N/A time=00:11:38.53 bitrate=N/A speed=15.5x    frame=16952 fps=373 q=-0.0 size=N/A time=00:11:47.03 bitrate=N/A speed=15.6x    frame=17160 fps=373 q=-0.0 size=N/A time=00:11:55.71 bitrate=N/A speed=15.6x    frame=17367 fps=374 q=-0.0 size=N/A time=00:12:04.34 bitrate=N/A speed=15.6x    frame=17571 fps=374 q=-0.0 size=N/A time=00:12:12.85 bitrate=N/A speed=15.6x    frame=17767 fps=374 q=-0.0 size=N/A time=00:12:21.03 bitrate=N/A speed=15.6x    frame=17978 fps=374 q=-0.0 size=N/A time=00:12:29.83 bitrate=N/A speed=15.6x    frame=18182 fps=375 q=-0.0 size=N/A time=00:12:38.34 bitrate=N/A speed=15.6x    frame=18359 fps=374 q=-0.0 size=N/A time=00:12:45.72 bitrate=N/A speed=15.6x    frame=18552 fps=374 q=-0.0 size=N/A time=00:12:53.77 bitrate=N/A speed=15.6x    frame=18755 fps=375 q=-0.0 size=N/A time=00:13:02.23 bitrate=N/A speed=15.6x    frame=18956 fps=375 q=-0.0 size=N/A time=00:13:10.62 bitrate=N/A speed=15.6x    frame=19139 fps=374 q=-0.0 size=N/A time=00:13:18.25 bitrate=N/A speed=15.6x    frame=19346 fps=375 q=-0.0 size=N/A time=00:13:26.88 bitrate=N/A speed=15.6x    frame=19543 fps=375 q=-0.0 size=N/A time=00:13:35.10 bitrate=N/A speed=15.6x    frame=19744 fps=375 q=-0.0 size=N/A time=00:13:43.48 bitrate=N/A speed=15.6x    frame=19962 fps=375 q=-0.0 size=N/A time=00:13:52.58 bitrate=N/A speed=15.6x    frame=20172 fps=376 q=-0.0 size=N/A time=00:14:01.34 bitrate=N/A speed=15.7x    frame=20373 fps=376 q=-0.0 size=N/A time=00:14:09.72 bitrate=N/A speed=15.7x    frame=20566 fps=376 q=-0.0 size=N/A time=00:14:17.77 bitrate=N/A speed=15.7x    frame=20761 fps=376 q=-0.0 size=N/A time=00:14:25.90 bitrate=N/A speed=15.7x    frame=20971 fps=376 q=-0.0 size=N/A time=00:14:34.66 bitrate=N/A speed=15.7x    frame=21186 fps=376 q=-0.0 size=N/A time=00:14:43.63 bitrate=N/A speed=15.7x    frame=21382 fps=376 q=-0.0 size=N/A time=00:14:51.80 bitrate=N/A speed=15.7x    frame=21580 fps=376 q=-0.0 size=N/A time=00:15:00.06 bitrate=N/A speed=15.7x    frame=21768 fps=376 q=-0.0 size=N/A time=00:15:07.90 bitrate=N/A speed=15.7x    frame=21971 fps=377 q=-0.0 size=N/A time=00:15:16.37 bitrate=N/A speed=15.7x    frame=22172 fps=377 q=-0.0 size=N/A time=00:15:24.75 bitrate=N/A speed=15.7x    frame=22368 fps=377 q=-0.0 size=N/A time=00:15:32.93 bitrate=N/A speed=15.7x    frame=22570 fps=377 q=-0.0 size=N/A time=00:15:41.35 bitrate=N/A speed=15.7x    frame=22765 fps=377 q=-0.0 size=N/A time=00:15:49.49 bitrate=N/A speed=15.7x    frame=22972 fps=377 q=-0.0 size=N/A time=00:15:58.12 bitrate=N/A speed=15.7x    frame=23175 fps=377 q=-0.0 size=N/A time=00:16:06.59 bitrate=N/A speed=15.7x    frame=23381 fps=377 q=-0.0 size=N/A time=00:16:15.18 bitrate=N/A speed=15.7x    frame=23589 fps=378 q=-0.0 size=N/A time=00:16:23.85 bitrate=N/A speed=15.7x    frame=23804 fps=378 q=-0.0 size=N/A time=00:16:32.82 bitrate=N/A speed=15.8x    frame=24010 fps=378 q=-0.0 size=N/A time=00:16:41.41 bitrate=N/A speed=15.8x    frame=24208 fps=378 q=-0.0 size=N/A time=00:16:49.67 bitrate=N/A speed=15.8x    frame=24414 fps=378 q=-0.0 size=N/A time=00:16:58.26 bitrate=N/A speed=15.8x    frame=24631 fps=379 q=-0.0 size=N/A time=00:17:07.31 bitrate=N/A speed=15.8x    frame=24835 fps=379 q=-0.0 size=N/A time=00:17:15.82 bitrate=N/A speed=15.8x    frame=25031 fps=379 q=-0.0 size=N/A time=00:17:24.00 bitrate=N/A speed=15.8x    frame=25240 fps=379 q=-0.0 size=N/A time=00:17:32.71 bitrate=N/A speed=15.8x    frame=25445 fps=379 q=-0.0 size=N/A time=00:17:41.26 bitrate=N/A speed=15.8x    frame=25644 fps=379 q=-0.0 size=N/A time=00:17:49.56 bitrate=N/A speed=15.8x    frame=25846 fps=379 q=-0.0 size=N/A time=00:17:57.99 bitrate=N/A speed=15.8x    frame=26046 fps=379 q=-0.0 size=N/A time=00:18:06.33 bitrate=N/A speed=15.8x    frame=26257 fps=380 q=-0.0 size=N/A time=00:18:15.13 bitrate=N/A speed=15.8x    frame=26465 fps=380 q=-0.0 size=N/A time=00:18:23.81 bitrate=N/A speed=15.8x    frame=26660 fps=380 q=-0.0 size=N/A time=00:18:31.94 bitrate=N/A speed=15.8x    frame=26858 fps=380 q=-0.0 size=N/A time=00:18:40.20 bitrate=N/A speed=15.8x    frame=27046 fps=380 q=-0.0 size=N/A time=00:18:48.04 bitrate=N/A speed=15.8x    frame=27229 fps=379 q=-0.0 size=N/A time=00:18:55.67 bitrate=N/A speed=15.8x    frame=27423 fps=379 q=-0.0 size=N/A time=00:19:03.76 bitrate=N/A speed=15.8x    frame=27626 fps=379 q=-0.0 size=N/A time=00:19:12.23 bitrate=N/A speed=15.8x    frame=27823 fps=380 q=-0.0 size=N/A time=00:19:20.45 bitrate=N/A speed=15.8x    frame=28022 fps=380 q=-0.0 size=N/A time=00:19:28.75 bitrate=N/A speed=15.8x    frame=28219 fps=380 q=-0.0 size=N/A time=00:19:36.96 bitrate=N/A speed=15.8x    frame=28422 fps=380 q=-0.0 size=N/A time=00:19:45.43 bitrate=N/A speed=15.8x    frame=28626 fps=380 q=-0.0 size=N/A time=00:19:53.94 bitrate=N/A speed=15.8x    frame=28805 fps=380 q=-0.0 size=N/A time=00:20:01.40 bitrate=N/A speed=15.8x    frame=28981 fps=379 q=-0.0 size=N/A time=00:20:08.74 bitrate=N/A speed=15.8x    frame=29168 fps=379 q=-0.0 size=N/A time=00:20:16.54 bitrate=N/A speed=15.8x    frame=29355 fps=379 q=-0.0 size=N/A time=00:20:24.34 bitrate=N/A speed=15.8x    frame=29526 fps=379 q=-0.0 size=N/A time=00:20:31.48 bitrate=N/A speed=15.8x    frame=29712 fps=379 q=-0.0 size=N/A time=00:20:39.23 bitrate=N/A speed=15.8x    frame=29896 fps=379 q=-0.0 size=N/A time=00:20:46.91 bitrate=N/A speed=15.8x    frame=30060 fps=378 q=-0.0 size=N/A time=00:20:53.75 bitrate=N/A speed=15.8x    frame=30256 fps=378 q=-0.0 size=N/A time=00:21:01.92 bitrate=N/A speed=15.8x    frame=30464 fps=378 q=-0.0 size=N/A time=00:21:10.60 bitrate=N/A speed=15.8x    frame=30668 fps=378 q=-0.0 size=N/A time=00:21:19.11 bitrate=N/A speed=15.8x    frame=30877 fps=379 q=-0.0 size=N/A time=00:21:27.82 bitrate=N/A speed=15.8x    frame=31077 fps=379 q=-0.0 size=N/A time=00:21:36.16 bitrate=N/A speed=15.8x    frame=31284 fps=379 q=-0.0 size=N/A time=00:21:44.80 bitrate=N/A speed=15.8x    frame=31478 fps=379 q=-0.0 size=N/A time=00:21:52.89 bitrate=N/A speed=15.8x    frame=31678 fps=379 q=-0.0 size=N/A time=00:22:01.23 bitrate=N/A speed=15.8x    frame=31871 fps=379 q=-0.0 size=N/A time=00:22:09.28 bitrate=N/A speed=15.8x    frame=32056 fps=379 q=-0.0 size=N/A time=00:22:17.00 bitrate=N/A speed=15.8x    frame=32250 fps=379 q=-0.0 size=N/A time=00:22:25.09 bitrate=N/A speed=15.8x    frame=32454 fps=379 q=-0.0 size=N/A time=00:22:33.60 bitrate=N/A speed=15.8x    frame=32641 fps=379 q=-0.0 size=N/A time=00:22:41.40 bitrate=N/A speed=15.8x    frame=32799 fps=378 q=-0.0 size=N/A time=00:22:47.99 bitrate=N/A speed=15.8x    frame=32973 fps=378 q=-0.0 size=N/A time=00:22:55.24 bitrate=N/A speed=15.8x    frame=33161 fps=378 q=-0.0 size=N/A time=00:23:03.09 bitrate=N/A speed=15.8x    frame=33349 fps=378 q=-0.0 size=N/A time=00:23:10.93 bitrate=N/A speed=15.8x    frame=33513 fps=378 q=-0.0 size=N/A time=00:23:17.77 bitrate=N/A speed=15.7x    frame=33676 fps=377 q=-0.0 size=N/A time=00:23:24.56 bitrate=N/A speed=15.7x    frame=33809 fps=376 q=-0.0 size=N/A time=00:23:30.11 bitrate=N/A speed=15.7x    frame=33946 fps=376 q=-0.0 size=N/A time=00:23:35.83 bitrate=N/A speed=15.7x    frame=34123 fps=376 q=-0.0 size=N/A time=00:23:43.21 bitrate=N/A speed=15.7x    frame=34282 fps=375 q=-0.0 size=N/A time=00:23:49.84 bitrate=N/A speed=15.7x    frame=34409 fps=375 q=-0.0 size=N/A time=00:23:55.14 bitrate=N/A speed=15.6x    frame=34580 fps=374 q=-0.0 size=N/A time=00:24:02.27 bitrate=N/A speed=15.6x    [Parsed_psnr_16 @ 000002981820ccc0] PSNR y:48.959171 u:50.330409 v:50.379522 average:49.376480 min:38.015838 max:inf
[out#0/null @ 000002980b02e740] video:14903KiB audio:271276KiB subtitle:0KiB other streams:0KiB global headers:0KiB muxing overhead: unknown
frame=34683 fps=374 q=-0.0 Lsize=N/A time=00:24:06.57 bitrate=N/A speed=15.6x    
